HIERARCHY
ROOT Hips
{
	OFFSET 0.00000 0.00000 0.00000
	CHANNELS 6 Xposition Yposition Zposition Zrotation Yrotation Xrotation 
	JOINT LHipJoint
	{
		OFFSET 0 0 0
		CHANNELS 3 Zrotation Yrotation Xrotation
		JOINT LeftHip
		{
			OFFSET 1.56857 -1.73443 1.15205
			CHANNELS 3 Zrotation Yrotation Xrotation
			JOINT LeftKnee
			{
				OFFSET 2.39362 -6.57643 0.00000
				CHANNELS 3 Zrotation Yrotation Xrotation
				JOINT LeftAnkle
				{
					OFFSET 2.50952 -6.89485 0.00000
					CHANNELS 3 Zrotation Yrotation Xrotation
					JOINT LeftToe
					{
						OFFSET 0.17171 -0.47178 1.88682
						CHANNELS 3 Zrotation Yrotation Xrotation
						End Site
						{
							OFFSET 0.00000 -0.00000 0.98146
						}
					}
				}
			}
		}
	}
	JOINT RHipJoint
	{
		OFFSET 0 0 0
		CHANNELS 3 Zrotation Yrotation Xrotation
		JOINT RightHip
		{
			OFFSET -1.28153 -1.73443 1.15205
			CHANNELS 3 Zrotation Yrotation Xrotation
			JOINT RightKnee
			{
				OFFSET -2.26861 -6.23296 0.00000
				CHANNELS 3 Zrotation Yrotation Xrotation
				JOINT RightAnkle
				{
					OFFSET -2.54143 -6.98254 0.00000
					CHANNELS 3 Zrotation Yrotation Xrotation
					JOINT RightToe
					{
						OFFSET -0.23309 -0.64041 1.93119
						CHANNELS 3 Zrotation Yrotation Xrotation
						End Site
						{
							OFFSET -0.00000 -0.00000 1.02013
						}
					}
				}
			}
		}
	}
	JOINT lowerback
	{
		OFFSET 0 0 0
		CHANNELS 3 Zrotation Yrotation Xrotation
		JOINT Chest
		{
			OFFSET -0.07096 2.10460 -0.27878
			CHANNELS 3 Zrotation Yrotation Xrotation
			JOINT Chest2
			{
				OFFSET -0.00826 2.13662 -0.08279
				CHANNELS 3 Zrotation Yrotation Xrotation
				JOINT lowerneck
				{
					OFFSET 0 0 0
					CHANNELS 3 Zrotation Yrotation Xrotation
					JOINT Neck
					{
						OFFSET 0.03239 1.77799 0.24435
						CHANNELS 3 Zrotation Yrotation Xrotation
						JOINT Head
						{
							OFFSET 0.01026 1.74194 -0.49664
							CHANNELS 3 Zrotation Yrotation Xrotation
							End Site
							{
								OFFSET 0.00170 1.83057 -0.19653
							}
						}
					}
				}
				JOINT LeftCollar
				{
					OFFSET 0 0 0
					CHANNELS 3 Zrotation Yrotation Xrotation
					JOINT LeftShoulder
					{
						OFFSET 3.19178 1.35907 -0.31412
CHANNELS 3 Zrotation Xrotation Yrotation
						JOINT LeftElbow
						{
OFFSET 0 -4.852470 -0.000000
CHANNELS 3 Zrotation Xrotation Yrotation
							JOINT LeftWrist
							{
OFFSET 0 -3.555840 0.000000
CHANNELS 3 Zrotation Xrotation Yrotation
								JOINT lhand
								{
									OFFSET 0 0 0
CHANNELS 3 Zrotation Xrotation Yrotation
									JOINT LFingers
									{
OFFSET 0 -0.693200 0.000000
CHANNELS 3 Zrotation Xrotation Yrotation
										End Site
										{
OFFSET 0 -0.558880 0.000000
										}
									}
								}
								JOINT LThumb
								{
OFFSET 0 0.000000 0.000000
CHANNELS 3 Zrotation Xrotation Yrotation
									End Site
									{
OFFSET 0 -0.567410 0.567410
									}
								}
							}
						}
					}
				}
				JOINT RightCollar
				{
					OFFSET 0 0 0
					CHANNELS 3 Zrotation Yrotation Xrotation
					JOINT RightShoulder
					{
						OFFSET -3.28999 1.24191 -0.26899
CHANNELS 3 Zrotation Xrotation Yrotation
						JOINT RightElbow
						{
OFFSET 0 -4.644620 0.000000
CHANNELS 3 Zrotation Xrotation Yrotation
							JOINT RightWrist
							{
OFFSET 0 -3.407030 0.000000
CHANNELS 3 Zrotation Xrotation Yrotation
								JOINT rhand
								{
									OFFSET 0 0 0
CHANNELS 3 Zrotation Xrotation Yrotation
									JOINT RFingers
									{
OFFSET 0 -0.619580 0.000000
CHANNELS 3 Zrotation Xrotation Yrotation
										End Site
										{
OFFSET 0 -0.499520 0.000000
										}
									}
								}
								JOINT RThumb
								{
OFFSET 0 0.000000 0.000000
CHANNELS 3 Zrotation Xrotation Yrotation
									End Site
									{
OFFSET 0 -0.507150 0.507150
									}
								}
							}
						}
					}
				}
			}
		}
	}
}
MOTION
Frames: 11
Frame Time: 0.008333333333333333
23.596572 17.651209 -1.801645 -34.164825 77.724669 -30.888831 0.000000 0.000000 0.000000 -10.596053 2.657829 -26.907900 0.236550 3.125549 8.628822 179.747807 -8.921699 4.368271 0.058737 -1.564056 -4.302459 0.000000 0.000000 0.000000 22.113328 -0.563418 25.023349 -9.678772 -17.211412 58.389957 -179.682541 9.950338 4.403595 -1.446097 -7.601500 21.510241 7.109892 7.362266 10.577319 0.856079 10.699355 0.790791 -4.385733 5.202635 -3.910445 -0.834598 -2.821397 -30.570474 0.747117 -3.784699 23.766667 -0.306966 -1.602760 13.037137 0.000000 0.000000 0.000000 37.527639 55.166417 -75.320777 118.982836 -56.574085 84.811098 45.914229 -48.421480 26.335651 0.000000 0.000000 0.000000 -7.125000 0.000000 0.000000 9.214156 -5.045422 10.115877 0.000000 0.000000 0.000000 -12.634893 7.821377 54.487771 -141.556960 -47.117463 -102.709719 -28.429863 -14.519228 11.289779 0.000000 0.000000 0.000000 7.125000 0.000000 0.000000 -1.177884 42.766667 -0.065086
23.913516 17.580628 -1.807735 -34.656076 77.591006 -31.660293 0.000000 0.000000 0.000000 -10.458159 2.870087 -26.485500 0.272450 3.356846 9.273865 179.750820 -8.858297 4.232813 0.060212 -1.582967 -4.354578 0.000000 0.000000 0.000000 22.295584 -0.373854 24.750446 -10.494916 -17.676635 61.126870 -179.707222 9.559415 4.148386 -1.404492 -7.496301 21.194322 7.192077 7.268798 10.696558 0.840437 10.593066 0.832973 -4.449199 5.149106 -3.926536 -0.774594 -2.803190 -30.688623 0.868151 -3.826496 23.943602 -0.280297 -1.593080 13.133810 0.000000 0.000000 0.000000 36.432117 54.250651 -74.241730 118.445108 -56.710056 84.362093 46.169887 -48.694639 26.473352 0.000000 0.000000 0.000000 -7.125000 0.000000 0.000000 9.319868 -5.321466 10.275631 0.000000 0.000000 0.000000 -12.478280 8.902731 54.861514 -140.927879 -47.509989 -102.247958 -28.384988 -14.678085 11.442738 0.000000 0.000000 0.000000 7.125000 0.000000 0.000000 -1.125252 42.933601 -0.057457
24.227146 17.496787 -1.812620 -36.316027 77.696724 -33.552180 0.000000 0.000000 0.000000 -10.361368 3.015327 -26.263729 0.330950 3.687826 10.201018 179.786136 -8.256590 4.383263 0.067231 -1.670885 -4.597021 0.000000 0.000000 0.000000 22.479828 -0.565781 24.350500 -11.306902 -18.068935 63.758437 -179.714666 9.427640 3.799522 -1.277127 -7.155939 20.180812 7.402511 7.041116 10.814893 0.824915 10.327612 0.814708 -4.570099 5.009817 -4.004099 -0.771422 -2.744907 -30.484645 1.117011 -3.822612 23.898212 -0.179380 -1.554893 13.084094 0.000000 0.000000 0.000000 35.481417 53.250450 -73.240971 117.785278 -56.870314 83.809731 46.228592 -48.701116 26.589719 0.000000 0.000000 0.000000 -7.125000 0.000000 0.000000 9.321439 -5.486498 10.301593 0.000000 0.000000 0.000000 -12.258688 10.031757 55.158296 -140.147950 -47.977910 -101.669459 -28.177814 -14.850080 11.663016 0.000000 0.000000 0.000000 7.125000 0.000000 0.000000 -0.917855 43.157006 -0.042476
24.539638 17.410737 -1.817574 -37.588380 77.875070 -35.089396 0.000000 0.000000 0.000000 -10.407832 3.162977 -25.991783 0.394497 4.025984 11.150679 179.821292 -7.647349 4.563506 0.065682 -1.646983 -4.531145 0.000000 0.000000 0.000000 22.488975 -0.803487 23.956109 -12.131151 -18.435579 66.393407 -179.722427 9.295119 3.405741 -1.159165 -6.832379 19.220816 7.490593 6.806466 10.947014 0.792315 10.037514 0.811115 -4.642108 4.859945 -4.094915 -0.824933 -2.687993 -30.222509 1.417742 -3.809796 23.825714 -0.046677 -1.511381 13.015083 0.000000 0.000000 0.000000 34.531048 52.210405 -72.226748 117.096781 -57.033924 83.232649 46.171818 -48.426925 26.568647 0.000000 0.000000 0.000000 -7.125000 0.000000 0.000000 9.295437 -5.436548 10.264822 0.000000 0.000000 0.000000 -12.067233 11.151852 55.451978 -139.301448 -48.474106 -101.038040 -28.050312 -15.022181 11.896527 0.000000 0.000000 0.000000 7.125000 0.000000 0.000000 -0.781494 43.404190 -0.030779
24.850620 17.322462 -1.822767 -38.107518 78.146947 -35.932080 0.000000 0.000000 0.000000 -10.683556 3.321513 -25.617207 0.463925 4.365494 12.107730 179.852833 -7.081734 4.762621 0.049591 -1.433636 -3.942900 0.000000 0.000000 0.000000 22.212482 -1.076197 23.583969 -12.975823 -18.767973 69.044866 -179.732491 9.134467 2.948466 -1.065441 -6.560630 18.420506 7.365905 6.574399 11.101704 0.731863 9.723775 0.837720 -4.628454 4.701729 -4.200947 -0.964942 -2.637477 -29.899026 1.789754 -3.787166 23.732118 0.130130 -1.462147 12.929821 0.000000 0.000000 0.000000 33.566175 51.114178 -71.182448 116.374233 -57.200473 82.626006 45.947252 -47.722904 26.325746 0.000000 0.000000 0.000000 -7.125000 0.000000 0.000000 9.235305 -5.047675 10.139685 0.000000 0.000000 0.000000 -11.928185 12.252438 55.748601 -138.362091 -49.008564 -100.332480 -28.069544 -15.193090 12.144621 0.000000 0.000000 0.000000 7.125000 0.000000 0.000000 -0.777006 43.684273 -0.025202
25.152558 17.231400 -1.822333 -38.302610 78.452480 -36.475383 0.000000 0.000000 0.000000 -11.009501 3.528062 -25.291116 0.555387 4.762430 13.234324 179.882638 -6.532632 4.996971 0.023193 -0.813681 -2.237273 0.000000 0.000000 0.000000 21.850009 -1.365420 23.137259 -13.855045 -19.055930 71.749807 -179.759016 8.662234 2.840322 -1.160138 -6.830429 19.216862 7.023872 6.328818 11.339062 0.699071 9.371542 0.887147 -4.473180 4.526423 -4.370453 -0.916425 -2.561982 -29.907055 1.894621 -3.736770 23.843088 0.172943 -1.417225 12.977816 0.000000 0.000000 0.000000 32.457055 49.963418 -70.021140 115.598887 -57.371072 81.973349 45.657161 -46.950308 26.023158 0.000000 0.000000 0.000000 -7.125000 0.000000 0.000000 9.152613 -4.560570 9.975424 0.000000 0.000000 0.000000 -11.905514 13.248480 56.103385 -137.282272 -49.592508 -99.512174 -28.180331 -15.299106 12.453979 0.000000 0.000000 0.000000 7.125000 0.000000 0.000000 -0.850664 44.044236 -0.019520
25.452163 17.138642 -1.820349 -38.553983 78.756287 -37.091087 0.000000 0.000000 0.000000 -11.330536 3.783725 -24.992391 0.660757 5.190709 14.455234 179.909609 -5.892439 4.849222 0.004170 -0.109066 -0.299508 0.000000 0.000000 0.000000 21.488835 -1.673002 22.672947 -14.737177 -19.315723 74.439167 -179.784839 8.208427 2.624529 -1.213021 -6.978885 19.655936 6.651743 6.069858 11.631890 0.679834 9.002463 0.925029 -4.291427 4.341078 -4.589906 -0.810985 -2.474003 -29.965748 1.909985 -3.667905 24.001956 0.174369 -1.371077 13.050927 0.000000 0.000000 0.000000 31.347190 48.809410 -68.869694 114.771424 -57.547950 81.275838 45.336541 -46.195146 25.724809 0.000000 0.000000 0.000000 -7.125000 0.000000 0.000000 9.050705 -4.066837 9.789420 0.000000 0.000000 0.000000 -11.896448 14.266864 56.450375 -136.143204 -50.191131 -98.641725 -28.122743 -15.341341 12.849111 0.000000 0.000000 0.000000 7.125000 0.000000 0.000000 -0.757416 44.477941 -0.012796
25.750773 17.042802 -1.817464 -39.166780 79.034255 -38.098655 0.000000 0.000000 0.000000 -11.606388 4.149006 -24.741220 0.791920 5.672280 15.838531 179.929610 -4.983275 3.594395 0.012504 0.583031 1.602414 0.000000 0.000000 0.000000 21.184840 -2.022448 22.205031 -15.606081 -19.523173 77.051008 -179.798430 8.000784 1.885826 -1.029931 -6.445837 18.087049 6.329350 5.781313 12.030827 0.681886 8.609488 0.915926 -4.122569 4.137860 -4.911723 -0.661167 -2.366111 -29.962094 1.837352 -3.563859 24.169595 0.141611 -1.318766 13.112469 0.000000 0.000000 0.000000 30.324942 47.680104 -67.819047 113.828797 -57.740142 80.479567 44.969978 -45.532153 25.475625 0.000000 0.000000 0.000000 -7.125000 0.000000 0.000000 8.908259 -3.615397 9.566007 0.000000 0.000000 0.000000 -11.853625 15.413736 56.739048 -134.923251 -50.800659 -97.700252 -27.530011 -15.242808 13.449728 0.000000 0.000000 0.000000 7.125000 0.000000 0.000000 -0.141542 45.071378 -0.003180
26.045924 16.943549 -1.816645 -39.800100 79.406754 -39.118437 0.000000 0.000000 0.000000 -12.179352 4.802508 -24.785815 0.995968 6.323379 17.734860 179.951228 -4.102674 1.651305 0.132390 -1.083314 -2.999402 0.000000 0.000000 0.000000 20.763321 -2.442445 21.661625 -16.565520 -19.699726 79.905129 -179.472739 -3.905394 1.504817 -1.330638 -7.218629 20.403079 5.992901 5.474266 12.481273 0.654253 8.188805 0.887737 -3.972214 3.919732 -5.278313 -0.574446 -2.126863 -29.487353 1.860867 -3.265496 23.978374 0.198040 -1.182522 12.940669 0.000000 0.000000 0.000000 29.410429 46.484917 -66.899756 112.774933 -57.942798 79.587057 44.551591 -44.777951 25.141296 0.000000 0.000000 0.000000 -7.125000 0.000000 0.000000 8.755575 -3.044231 9.316099 0.000000 0.000000 0.000000 -11.791132 16.570802 56.978412 -133.566507 -51.440904 -96.642421 -26.853525 -15.450056 13.786330 0.000000 0.000000 0.000000 7.125000 0.000000 0.000000 0.529839 45.356386 -0.006273
26.339327 16.841801 -1.817277 -40.330111 79.861153 -40.021125 0.000000 0.000000 0.000000 -12.942395 5.530617 -24.960837 1.238181 7.047367 19.859493 179.970752 -3.381624 -0.344936 0.251906 -3.037011 -8.391486 0.000000 0.000000 0.000000 20.230337 -2.906676 21.066058 -17.550313 -19.851567 82.819852 -178.528002 -20.754991 1.178055 -1.761914 -8.351457 23.786867 5.616608 5.157263 12.937937 0.600028 7.745331 0.859349 -3.819915 3.691786 -5.649078 -0.524714 -1.842475 -28.838741 1.946718 -2.901586 23.617148 0.298232 -1.015885 12.668905 0.000000 0.000000 0.000000 28.543407 45.230528 -66.043626 111.646765 -58.151685 78.630164 44.118306 -44.009449 24.786117 0.000000 0.000000 0.000000 -7.125000 0.000000 0.000000 8.598270 -2.444221 9.058317 0.000000 0.000000 0.000000 -11.726576 17.696814 57.186942 -132.112907 -52.102160 -95.502105 -26.203348 -15.776452 13.995611 0.000000 0.000000 0.000000 7.125000 0.000000 0.000000 1.165234 45.501604 -0.014574
26.631078 16.733717 -1.821380 -40.175164 80.569085 -40.176328 0.000000 0.000000 0.000000 -14.090805 5.961671 -25.160209 1.523200 7.773890 22.038997 179.973252 -3.560995 -0.867855 0.077728 -0.585181 -1.621611 0.000000 0.000000 0.000000 19.323226 -3.456905 20.348959 -18.453514 -19.933111 85.471952 -174.686591 -37.251285 0.248314 -1.727168 -8.272926 23.546274 5.033557 4.827754 13.298026 0.460852 7.234977 0.879607 -3.607401 3.442795 -5.928392 -0.536189 -1.625409 -28.358325 2.162309 -2.644774 23.154553 0.432856 -0.882799 12.395874 0.000000 0.000000 0.000000 27.685144 43.786457 -65.230303 110.355141 -58.371316 77.531245 43.729370 -43.391844 24.525971 0.000000 0.000000 0.000000 -7.125000 0.000000 0.000000 8.439477 -1.980729 8.821634 0.000000 0.000000 0.000000 -11.700805 18.606426 57.335862 -130.424782 -52.811567 -94.161695 -25.932753 -16.032110 14.116581 0.000000 0.000000 0.000000 7.125000 0.000000 0.000000 1.435701 45.598341 -0.021497
